<?xml version="1.0" encoding="UTF-8" standalone="no"?>
<!-- Created with Inkscape (http://www.inkscape.org/) -->

<svg
   xmlns:dc="http://purl.org/dc/elements/1.1/"
   xmlns:cc="http://creativecommons.org/ns#"
   xmlns:rdf="http://www.w3.org/1999/02/22-rdf-syntax-ns#"
   xmlns:svg="http://www.w3.org/2000/svg"
   xmlns="http://www.w3.org/2000/svg"
   xmlns:sodipodi="http://sodipodi.sourceforge.net/DTD/sodipodi-0.dtd"
   xmlns:inkscape="http://www.inkscape.org/namespaces/inkscape"
   width="210mm"
   height="297mm"
   viewBox="0 0 210 297"
   version="1.1"
   id="svg8"
   inkscape:version="0.92.4 (5da689c313, 2019-01-14)"
   sodipodi:docname="make-reuse-city-curves.svg"
   inkscape:export-filename="/home/felipe/public_html/II/prototyping/reuse.city/make-reuse-city.png"
   inkscape:export-xdpi="178"
   inkscape:export-ydpi="178">
  <defs
     id="defs2" />
  <sodipodi:namedview
     id="base"
     pagecolor="#ffffff"
     bordercolor="#666666"
     borderopacity="1.0"
     inkscape:pageopacity="0.0"
     inkscape:pageshadow="2"
     inkscape:zoom="0.98994949"
     inkscape:cx="175.43291"
     inkscape:cy="538.67837"
     inkscape:document-units="mm"
     inkscape:current-layer="layer1"
     showgrid="false"
     inkscape:window-width="1920"
     inkscape:window-height="1021"
     inkscape:window-x="0"
     inkscape:window-y="24"
     inkscape:window-maximized="1" />
  <metadata
     id="metadata5">
    <rdf:RDF>
      <cc:Work
         rdf:about="">
        <dc:format>image/svg+xml</dc:format>
        <dc:type
           rdf:resource="http://purl.org/dc/dcmitype/StillImage" />
        <dc:title></dc:title>
      </cc:Work>
    </rdf:RDF>
  </metadata>
  <g
     inkscape:label="Camada 1"
     inkscape:groupmode="layer"
     id="layer1">
    <path
       style="opacity:1;fill:#ffffff;fill-opacity:1;stroke:#000000;stroke-width:1.07500005;stroke-linecap:round;stroke-linejoin:round;stroke-miterlimit:4;stroke-dasharray:none;stroke-dashoffset:0;stroke-opacity:1"
       d="m 79.030258,122.53026 h 51.939492 v 51.93949 H 79.030258 Z"
       id="rect27" />
    <g
       aria-label="MAKE
REUSE
CITY"
       style="font-style:normal;font-variant:normal;font-weight:normal;font-stretch:normal;font-size:10.58333302px;line-height:1.25;font-family:'Lily Script One';-inkscape-font-specification:'Lily Script One';text-align:start;letter-spacing:0px;word-spacing:0px;text-anchor:start;fill:#000000;fill-opacity:1;stroke:none;stroke-width:0.26458332"
       id="text12">
      <path
         d="M 90.375829,140.64717 H 89.190495 V 129.6405 h 1.778 l 1.9304,7.2644 1.947334,-7.2644 h 1.777999 v 11.00667 h -1.185333 v -9.11013 l -1.9812,7.4168 h -1.100666 l -1.9812,-7.4168 z"
         style="font-style:normal;font-variant:normal;font-weight:normal;font-stretch:normal;font-size:16.93333244px;line-height:2.23000002px;font-family:'Unica One';-inkscape-font-specification:'Unica One, Normal';font-variant-ligatures:normal;font-variant-caps:normal;font-variant-numeric:normal;font-feature-settings:normal;text-align:center;writing-mode:lr-tb;text-anchor:middle;stroke-width:0.26458332"
         id="path884" />
      <path
         d="m 101.47854,129.6405 h 1.778 l 2.4892,11.00667 h -1.18533 l -0.57574,-2.54 h -3.23426 l -0.57574,2.54 h -1.185331 z m 0.88053,1.3208 -1.38853,6.12987 h 2.77707 z"
         style="font-style:normal;font-variant:normal;font-weight:normal;font-stretch:normal;font-size:16.93333244px;line-height:2.23000002px;font-family:'Unica One';-inkscape-font-specification:'Unica One, Normal';font-variant-ligatures:normal;font-variant-caps:normal;font-variant-numeric:normal;font-feature-settings:normal;text-align:center;writing-mode:lr-tb;text-anchor:middle;stroke-width:0.26458332"
         id="path886" />
      <path
         d="m 109.31047,140.64717 h -1.18533 V 129.6405 h 1.18533 v 4.6736 l 2.9464,-4.6736 h 1.3208 l -2.9972,4.74134 3.2004,6.26533 H 112.477 l -2.60773,-5.1308 -0.5588,0.89747 z"
         style="font-style:normal;font-variant:normal;font-weight:normal;font-stretch:normal;font-size:16.93333244px;line-height:2.23000002px;font-family:'Unica One';-inkscape-font-specification:'Unica One, Normal';font-variant-ligatures:normal;font-variant-caps:normal;font-variant-numeric:normal;font-feature-settings:normal;text-align:center;writing-mode:lr-tb;text-anchor:middle;stroke-width:0.26458332"
         id="path888" />
      <path
         d="m 120.80953,140.64717 h -4.99534 V 129.6405 h 4.826 v 1.016 h -3.64066 v 3.89467 h 2.96333 v 1.016 h -2.96333 v 4.064 h 3.81 z"
         style="font-style:normal;font-variant:normal;font-weight:normal;font-stretch:normal;font-size:16.93333244px;line-height:2.23000002px;font-family:'Unica One';-inkscape-font-specification:'Unica One, Normal';font-variant-ligatures:normal;font-variant-caps:normal;font-variant-numeric:normal;font-feature-settings:normal;text-align:center;writing-mode:lr-tb;text-anchor:middle;stroke-width:0.26458332"
         id="path890" />
      <path
         d="m 87.200829,153.87634 h -1.185333 v -11.00667 h 2.556933 q 1.3208,0 1.998133,0.62653 0.694267,0.62654 0.694267,1.74414 v 2.37066 q 0,1.7272 -1.490134,2.20134 l 2.0828,4.064 h -1.303866 l -1.9812,-3.89467 h -1.3716 z m 2.878666,-6.26534 v -2.37066 q 0,-0.64347 -0.389466,-0.99907 -0.389467,-0.3556 -1.1176,-0.3556 h -1.3716 v 5.08 h 1.3716 q 1.507066,0 1.507066,-1.35467 z"
         style="font-style:normal;font-variant:normal;font-weight:normal;font-stretch:normal;font-size:16.93333244px;line-height:2.23000002px;font-family:'Unica One';-inkscape-font-specification:'Unica One, Normal';font-variant-ligatures:normal;font-variant-caps:normal;font-variant-numeric:normal;font-feature-settings:normal;text-align:center;writing-mode:lr-tb;text-anchor:middle;stroke-width:0.26458332"
         id="path892" />
      <path
         d="m 99.212911,153.87634 h -4.995333 v -11.00667 h 4.826 v 1.016 h -3.640666 v 3.89467 h 2.963333 v 1.016 h -2.963333 v 4.064 h 3.809999 z"
         style="font-style:normal;font-variant:normal;font-weight:normal;font-stretch:normal;font-size:16.93333244px;line-height:2.23000002px;font-family:'Unica One';-inkscape-font-specification:'Unica One, Normal';font-variant-ligatures:normal;font-variant-caps:normal;font-variant-numeric:normal;font-feature-settings:normal;text-align:center;writing-mode:lr-tb;text-anchor:middle;stroke-width:0.26458332"
         id="path894" />
      <path
         d="m 106.16087,151.75967 v -8.89 h 1.18533 v 8.89 q 0,1.13453 -0.72813,1.76107 -0.7112,0.6096 -2.15053,0.6096 -1.4224,0 -2.15054,-0.6096 -0.72813,-0.62654 -0.72813,-1.76107 v -8.89 h 1.18533 v 8.89 q 0,1.35467 1.69334,1.35467 1.69333,0 1.69333,-1.35467 z"
         style="font-style:normal;font-variant:normal;font-weight:normal;font-stretch:normal;font-size:16.93333244px;line-height:2.23000002px;font-family:'Unica One';-inkscape-font-specification:'Unica One, Normal';font-variant-ligatures:normal;font-variant-caps:normal;font-variant-numeric:normal;font-feature-settings:normal;text-align:center;writing-mode:lr-tb;text-anchor:middle;stroke-width:0.26458332"
         id="path896" />
      <path
         d="m 115.9404,151.75967 q 0,2.37067 -2.86173,2.37067 -2.86174,0 -2.86174,-2.37067 v -1.43933 h 1.18534 v 1.50706 q 0,0.6096 0.42333,0.94827 0.42333,0.33867 1.25307,0.33867 0.82973,0 1.25306,-0.33867 0.42334,-0.33867 0.42334,-0.9144 0,-0.59267 -0.13547,-0.93133 -0.11853,-0.3556 -0.508,-0.74507 l -2.98027,-2.91253 q -0.52493,-0.52494 -0.72813,-1.016 -0.18627,-0.508 -0.18627,-1.27 0,-1.13454 0.69427,-1.74414 0.7112,-0.62653 2.1336,-0.62653 2.72627,0 2.72627,2.37067 v 1.43933 h -1.18534 v -1.50707 q 0,-0.6096 -0.4064,-0.94826 -0.38946,-0.33867 -1.18533,-0.33867 -0.79587,0 -1.20227,0.33867 -0.38946,0.33866 -0.38946,0.93133 0,0.59267 0.11853,0.93133 0.11853,0.33867 0.52493,0.7112 l 3.03107,2.91254 q 0.49107,0.54186 0.67733,1.04986 0.18627,0.49107 0.18627,1.25307 z"
         style="font-style:normal;font-variant:normal;font-weight:normal;font-stretch:normal;font-size:16.93333244px;line-height:2.23000002px;font-family:'Unica One';-inkscape-font-specification:'Unica One, Normal';font-variant-ligatures:normal;font-variant-caps:normal;font-variant-numeric:normal;font-feature-settings:normal;text-align:center;writing-mode:lr-tb;text-anchor:middle;stroke-width:0.26458332"
         id="path898" />
      <path
         d="m 123.98453,153.87634 h -4.99534 v -11.00667 h 4.826 v 1.016 h -3.64066 v 3.89467 h 2.96333 v 1.016 h -2.96333 v 4.064 h 3.81 z"
         style="font-style:normal;font-variant:normal;font-weight:normal;font-stretch:normal;font-size:16.93333244px;line-height:2.23000002px;font-family:'Unica One';-inkscape-font-specification:'Unica One, Normal';font-variant-ligatures:normal;font-variant-caps:normal;font-variant-numeric:normal;font-feature-settings:normal;text-align:center;writing-mode:lr-tb;text-anchor:middle;stroke-width:0.26458332"
         id="path900" />
      <path
         d="m 96.530698,164.98884 v -0.93134 h 1.185334 v 0.93134 q 0,1.13453 -0.694267,1.76106 -0.694267,0.6096 -2.0828,0.6096 -1.388533,0 -2.099733,-0.6096 -0.7112,-0.62653 -0.7112,-1.76106 v -6.77334 q 0,-1.13453 0.694266,-1.74413 0.694267,-0.62653 2.0828,-0.62653 1.388534,0 2.099734,0.62653 0.7112,0.6096 0.7112,1.74413 v 1.60867 h -1.185334 v -1.60867 q 0,-1.35466 -1.608666,-1.35466 -1.608667,0 -1.608667,1.35466 v 6.77334 q 0,1.35466 1.608667,1.35466 1.608666,0 1.608666,-1.35466 z"
         style="font-style:normal;font-variant:normal;font-weight:normal;font-stretch:normal;font-size:16.93333244px;line-height:2.23000002px;font-family:'Unica One';-inkscape-font-specification:'Unica One, Normal';font-variant-ligatures:normal;font-variant-caps:normal;font-variant-numeric:normal;font-feature-settings:normal;text-align:center;writing-mode:lr-tb;text-anchor:middle;stroke-width:0.26458332"
         id="path902" />
      <path
         d="m 103.054,166.0895 v 1.016 h -2.87867 v -1.016 h 0.84667 v -8.97466 h -0.84667 v -1.016 h 2.87867 v 1.016 h -0.84667 v 8.97466 z"
         style="font-style:normal;font-variant:normal;font-weight:normal;font-stretch:normal;font-size:16.93333244px;line-height:2.23000002px;font-family:'Unica One';-inkscape-font-specification:'Unica One, Normal';font-variant-ligatures:normal;font-variant-caps:normal;font-variant-numeric:normal;font-feature-settings:normal;text-align:center;writing-mode:lr-tb;text-anchor:middle;stroke-width:0.26458332"
         id="path904" />
      <path
         d="m 110.34459,156.09884 v 1.016 h -2.20133 v 9.99066 h -1.18533 v -9.99066 h -2.20134 v -1.016 z"
         style="font-style:normal;font-variant:normal;font-weight:normal;font-stretch:normal;font-size:16.93333244px;line-height:2.23000002px;font-family:'Unica One';-inkscape-font-specification:'Unica One, Normal';font-variant-ligatures:normal;font-variant-caps:normal;font-variant-numeric:normal;font-feature-settings:normal;text-align:center;writing-mode:lr-tb;text-anchor:middle;stroke-width:0.26458332"
         id="path906" />
      <path
         d="m 115.26584,167.1055 h -1.18533 v -3.94546 l -2.794,-7.0612 h 1.25307 l 2.1336,5.67266 2.1336,-5.67266 h 1.25306 l -2.794,7.07813 z"
         style="font-style:normal;font-variant:normal;font-weight:normal;font-stretch:normal;font-size:16.93333244px;line-height:2.23000002px;font-family:'Unica One';-inkscape-font-specification:'Unica One, Normal';font-variant-ligatures:normal;font-variant-caps:normal;font-variant-numeric:normal;font-feature-settings:normal;text-align:center;writing-mode:lr-tb;text-anchor:middle;stroke-width:0.26458332"
         id="path908" />
    </g>
    <g
       aria-label="Font:
Unica One"
       style="font-style:normal;font-variant:normal;font-weight:normal;font-stretch:normal;font-size:10.58333302px;line-height:1.25;font-family:'Lily Script One';-inkscape-font-specification:'Lily Script One';text-align:start;letter-spacing:0px;word-spacing:0px;text-anchor:start;fill:#000000;fill-opacity:1;stroke:none;stroke-width:0.26458332"
       id="text874">
      <path
         d="m 85.675526,194.50198 h -1.185333 v -11.00666 h 4.656666 v 1.016 h -3.471333 v 3.89466 h 2.794 v 1.016 h -2.794 z"
         style="font-style:normal;font-variant:normal;font-weight:normal;font-stretch:normal;font-size:16.93333244px;line-height:2.23000002px;font-family:'Unica One';-inkscape-font-specification:'Unica One, Normal';font-variant-ligatures:normal;font-variant-caps:normal;font-variant-numeric:normal;font-feature-settings:normal;text-align:start;writing-mode:lr-tb;text-anchor:start;stroke-width:0.26458332"
         id="path911" />
      <path
         d="m 97.004984,185.61198 v 6.77334 q 0,1.13453 -0.728133,1.76106 -0.7112,0.6096 -2.150534,0.6096 -1.422399,0 -2.150533,-0.6096 -0.728133,-0.62653 -0.728133,-1.76106 v -6.77334 q 0,-1.13453 0.7112,-1.74413 0.728133,-0.62653 2.150533,-0.62653 1.439333,0 2.167467,0.62653 0.728133,0.6096 0.728133,1.74413 z m -1.185333,6.77334 v -6.77334 q 0,-1.35466 -1.693334,-1.35466 -1.693333,0 -1.693333,1.35466 v 6.77334 q 0,1.35466 1.693333,1.35466 1.693334,0 1.693334,-1.35466 z"
         style="font-style:normal;font-variant:normal;font-weight:normal;font-stretch:normal;font-size:16.93333244px;line-height:2.23000002px;font-family:'Unica One';-inkscape-font-specification:'Unica One, Normal';font-variant-ligatures:normal;font-variant-caps:normal;font-variant-numeric:normal;font-feature-settings:normal;text-align:start;writing-mode:lr-tb;text-anchor:start;stroke-width:0.26458332"
         id="path913" />
      <path
         d="m 101.31901,194.50198 h -1.18533 v -11.00666 h 0.508 l 0.42333,1.10066 q 0.8128,-1.35466 2.25214,-1.35466 2.4892,0 2.4892,2.37066 v 8.89 h -1.18534 v -8.89 q 0,-0.64346 -0.28786,-0.99906 -0.27094,-0.3556 -1.016,-0.3556 -0.74507,0 -1.3716,0.57573 -0.62654,0.57573 -0.62654,1.1176 z"
         style="font-style:normal;font-variant:normal;font-weight:normal;font-stretch:normal;font-size:16.93333244px;line-height:2.23000002px;font-family:'Unica One';-inkscape-font-specification:'Unica One, Normal';font-variant-ligatures:normal;font-variant-caps:normal;font-variant-numeric:normal;font-feature-settings:normal;text-align:start;writing-mode:lr-tb;text-anchor:start;stroke-width:0.26458332"
         id="path915" />
      <path
         d="m 108.7763,183.49532 h 3.72533 v 1.016 h -2.54 v 8.11106 q 0,0.47414 0.23706,0.79587 0.254,0.32173 0.69427,0.32173 0.4572,0 0.69427,-0.3048 0.23706,-0.32173 0.23706,-0.8128 v -2.01506 h 1.18534 v 1.94733 q 0,1.0668 -0.57574,1.64253 -0.5588,0.5588 -1.524,0.5588 -0.9652,0 -1.55786,-0.5588 -0.57573,-0.57573 -0.57573,-1.64253 z"
         style="font-style:normal;font-variant:normal;font-weight:normal;font-stretch:normal;font-size:16.93333244px;line-height:2.23000002px;font-family:'Unica One';-inkscape-font-specification:'Unica One, Normal';font-variant-ligatures:normal;font-variant-caps:normal;font-variant-numeric:normal;font-feature-settings:normal;text-align:start;writing-mode:lr-tb;text-anchor:start;stroke-width:0.26458332"
         id="path917" />
      <path
         d="m 116.6503,194.50198 h -1.524 v -1.86266 h 1.524 z m 0,-6.77333 h -1.524 v -1.86267 h 1.524 z"
         style="font-style:normal;font-variant:normal;font-weight:normal;font-stretch:normal;font-size:16.93333244px;line-height:2.23000002px;font-family:'Unica One';-inkscape-font-specification:'Unica One, Normal';font-variant-ligatures:normal;font-variant-caps:normal;font-variant-numeric:normal;font-feature-settings:normal;text-align:start;writing-mode:lr-tb;text-anchor:start;stroke-width:0.26458332"
         id="path919" />
      <path
         d="m 88.892859,205.61448 v -8.89 h 1.185334 v 8.89 q 0,1.13454 -0.728134,1.76107 -0.7112,0.6096 -2.150533,0.6096 -1.4224,0 -2.150533,-0.6096 -0.728133,-0.62653 -0.728133,-1.76107 v -8.89 h 1.185333 v 8.89 q 0,1.35467 1.693333,1.35467 1.693333,0 1.693333,-1.35467 z"
         style="font-style:normal;font-variant:normal;font-weight:normal;font-stretch:normal;font-size:16.93333244px;line-height:2.23000002px;font-family:'Unica One';-inkscape-font-specification:'Unica One, Normal';font-variant-ligatures:normal;font-variant-caps:normal;font-variant-numeric:normal;font-feature-settings:normal;text-align:start;writing-mode:lr-tb;text-anchor:start;stroke-width:0.26458332"
         id="path921" />
      <path
         d="m 94.472922,207.73115 h -1.185333 v -11.00667 h 0.508 l 0.423333,1.10067 q 0.8128,-1.35467 2.252133,-1.35467 2.4892,0 2.4892,2.37067 v 8.89 h -1.185333 v -8.89 q 0,-0.64347 -0.287867,-0.99907 -0.270933,-0.3556 -1.016,-0.3556 -0.745066,0 -1.3716,0.57574 -0.626533,0.57573 -0.626533,1.1176 z"
         style="font-style:normal;font-variant:normal;font-weight:normal;font-stretch:normal;font-size:16.93333244px;line-height:2.23000002px;font-family:'Unica One';-inkscape-font-specification:'Unica One, Normal';font-variant-ligatures:normal;font-variant-caps:normal;font-variant-numeric:normal;font-feature-settings:normal;text-align:start;writing-mode:lr-tb;text-anchor:start;stroke-width:0.26458332"
         id="path923" />
      <path
         d="m 103.36954,207.73115 h -1.18534 v -11.00667 h 1.18534 z"
         style="font-style:normal;font-variant:normal;font-weight:normal;font-stretch:normal;font-size:16.93333244px;line-height:2.23000002px;font-family:'Unica One';-inkscape-font-specification:'Unica One, Normal';font-variant-ligatures:normal;font-variant-caps:normal;font-variant-numeric:normal;font-feature-settings:normal;text-align:start;writing-mode:lr-tb;text-anchor:start;stroke-width:0.26458332"
         id="path925" />
      <path
         d="m 110.89693,205.61448 v -0.93133 h 1.18533 v 0.93133 q 0,1.13454 -0.69426,1.76107 -0.69427,0.6096 -2.0828,0.6096 -1.38854,0 -2.09974,-0.6096 -0.7112,-0.62653 -0.7112,-1.76107 v -6.77333 q 0,-1.13453 0.69427,-1.74413 0.69427,-0.62654 2.0828,-0.62654 1.38853,0 2.09973,0.62654 0.7112,0.6096 0.7112,1.74413 v 1.60867 h -1.18533 v -1.60867 q 0,-1.35467 -1.60867,-1.35467 -1.60866,0 -1.60866,1.35467 v 6.77333 q 0,1.35467 1.60866,1.35467 1.60867,0 1.60867,-1.35467 z"
         style="font-style:normal;font-variant:normal;font-weight:normal;font-stretch:normal;font-size:16.93333244px;line-height:2.23000002px;font-family:'Unica One';-inkscape-font-specification:'Unica One, Normal';font-variant-ligatures:normal;font-variant-caps:normal;font-variant-numeric:normal;font-feature-settings:normal;text-align:start;writing-mode:lr-tb;text-anchor:start;stroke-width:0.26458332"
         id="path927" />
      <path
         d="m 120.2989,207.73115 h -0.508 l -0.44027,-1.08373 q -0.3556,0.6096 -0.93133,0.98213 -0.57573,0.3556 -1.27,0.3556 -2.4384,0 -2.4384,-2.37067 v -1.69333 q 0,-2.37067 2.4384,-2.37067 h 1.96427 v -2.77706 q 0,-0.6096 -0.38947,-0.94827 -0.38947,-0.33867 -1.15147,-0.33867 -1.50706,0 -1.50706,1.28694 v 0.99906 h -1.18534 v -0.93133 q 0,-1.13453 0.6604,-1.74413 0.67734,-0.62654 2.032,-0.62654 1.35467,0 2.032,0.62654 0.69427,0.6096 0.69427,1.74413 z m -1.18533,-5.16467 h -1.96427 q -0.7112,0 -0.98213,0.3556 -0.27094,0.3556 -0.27094,0.99907 v 1.69333 q 0,0.64347 0.27094,0.99907 0.27093,0.3556 0.98213,0.3556 0.7112,0 1.3208,-0.54187 0.6096,-0.5588 0.64347,-1.10066 z"
         style="font-style:normal;font-variant:normal;font-weight:normal;font-stretch:normal;font-size:16.93333244px;line-height:2.23000002px;font-family:'Unica One';-inkscape-font-specification:'Unica One, Normal';font-variant-ligatures:normal;font-variant-caps:normal;font-variant-numeric:normal;font-feature-settings:normal;text-align:start;writing-mode:lr-tb;text-anchor:start;stroke-width:0.26458332"
         id="path929" />
      <path
         d="m 132.92217,198.84115 v 6.77333 q 0,1.13454 -0.72813,1.76107 -0.7112,0.6096 -2.15054,0.6096 -1.4224,0 -2.15053,-0.6096 -0.72813,-0.62653 -0.72813,-1.76107 v -6.77333 q 0,-1.13453 0.7112,-1.74413 0.72813,-0.62654 2.15053,-0.62654 1.43933,0 2.16747,0.62654 0.72813,0.6096 0.72813,1.74413 z m -1.18533,6.77333 v -6.77333 q 0,-1.35467 -1.69334,-1.35467 -1.69333,0 -1.69333,1.35467 v 6.77333 q 0,1.35467 1.69333,1.35467 1.69334,0 1.69334,-1.35467 z"
         style="font-style:normal;font-variant:normal;font-weight:normal;font-stretch:normal;font-size:16.93333244px;line-height:2.23000002px;font-family:'Unica One';-inkscape-font-specification:'Unica One, Normal';font-variant-ligatures:normal;font-variant-caps:normal;font-variant-numeric:normal;font-feature-settings:normal;text-align:start;writing-mode:lr-tb;text-anchor:start;stroke-width:0.26458332"
         id="path931" />
      <path
         d="m 137.2362,207.73115 h -1.18533 v -11.00667 h 0.508 l 0.42333,1.10067 q 0.8128,-1.35467 2.25213,-1.35467 2.4892,0 2.4892,2.37067 v 8.89 h -1.18533 v -8.89 q 0,-0.64347 -0.28787,-0.99907 -0.27093,-0.3556 -1.016,-0.3556 -0.74506,0 -1.3716,0.57574 -0.62653,0.57573 -0.62653,1.1176 z"
         style="font-style:normal;font-variant:normal;font-weight:normal;font-stretch:normal;font-size:16.93333244px;line-height:2.23000002px;font-family:'Unica One';-inkscape-font-specification:'Unica One, Normal';font-variant-ligatures:normal;font-variant-caps:normal;font-variant-numeric:normal;font-feature-settings:normal;text-align:start;writing-mode:lr-tb;text-anchor:start;stroke-width:0.26458332"
         id="path933" />
      <path
         d="m 149.09615,205.61448 v -0.93133 h 1.18533 v 0.93133 q 0,1.13454 -0.69427,1.76107 -0.69426,0.6096 -2.0828,0.6096 -1.38853,0 -2.09973,-0.6096 -0.7112,-0.62653 -0.7112,-1.76107 v -6.77333 q 0,-1.13453 0.69427,-1.74413 0.69426,-0.62654 2.0828,-0.62654 1.38853,0 2.09973,0.62654 0.7112,0.6096 0.7112,1.74413 v 3.72533 h -4.40267 v 3.048 q 0,1.35467 1.60867,1.35467 1.60867,0 1.60867,-1.35467 z m -3.21734,-6.77333 v 2.70933 h 3.21734 v -2.70933 q 0,-1.35467 -1.60867,-1.35467 -1.60867,0 -1.60867,1.35467 z"
         style="font-style:normal;font-variant:normal;font-weight:normal;font-stretch:normal;font-size:16.93333244px;line-height:2.23000002px;font-family:'Unica One';-inkscape-font-specification:'Unica One, Normal';font-variant-ligatures:normal;font-variant-caps:normal;font-variant-numeric:normal;font-feature-settings:normal;text-align:start;writing-mode:lr-tb;text-anchor:start;stroke-width:0.26458332"
         id="path935" />
    </g>
  </g>
</svg>
