<?xml version="1.0" encoding="UTF-8" standalone="no"?>
<!-- Created with Inkscape (http://www.inkscape.org/) -->

<svg
   xmlns:dc="http://purl.org/dc/elements/1.1/"
   xmlns:cc="http://creativecommons.org/ns#"
   xmlns:rdf="http://www.w3.org/1999/02/22-rdf-syntax-ns#"
   xmlns:svg="http://www.w3.org/2000/svg"
   xmlns="http://www.w3.org/2000/svg"
   xmlns:sodipodi="http://sodipodi.sourceforge.net/DTD/sodipodi-0.dtd"
   xmlns:inkscape="http://www.inkscape.org/namespaces/inkscape"
   width="210mm"
   height="297mm"
   viewBox="0 0 210 297"
   version="1.1"
   id="svg8"
   inkscape:version="0.92.4 (5da689c313, 2019-01-14)"
   sodipodi:docname="reuse-city-curves.svg"
   inkscape:export-filename="/home/felipe/public_html/II/prototyping/reuse.city/make-reuse-city.png"
   inkscape:export-xdpi="178"
   inkscape:export-ydpi="178">
  <defs
     id="defs2" />
  <sodipodi:namedview
     id="base"
     pagecolor="#ffffff"
     bordercolor="#666666"
     borderopacity="1.0"
     inkscape:pageopacity="0.0"
     inkscape:pageshadow="2"
     inkscape:zoom="0.98994949"
     inkscape:cx="175.43291"
     inkscape:cy="538.67837"
     inkscape:document-units="mm"
     inkscape:current-layer="layer1"
     showgrid="false"
     inkscape:window-width="1920"
     inkscape:window-height="1021"
     inkscape:window-x="0"
     inkscape:window-y="24"
     inkscape:window-maximized="1" />
  <metadata
     id="metadata5">
    <rdf:RDF>
      <cc:Work
         rdf:about="">
        <dc:format>image/svg+xml</dc:format>
        <dc:type
           rdf:resource="http://purl.org/dc/dcmitype/StillImage" />
        <dc:title />
      </cc:Work>
    </rdf:RDF>
  </metadata>
  <g
     inkscape:label="Camada 1"
     inkscape:groupmode="layer"
     id="layer1">
    <path
       style="opacity:1;fill:#ffffff;fill-opacity:1;stroke:#000000;stroke-width:0.9231813;stroke-linecap:round;stroke-linejoin:round;stroke-miterlimit:4;stroke-dasharray:none;stroke-dashoffset:0;stroke-opacity:1"
       d="m 78.954348,129.40336 h 52.091302 v 38.19329 H 78.954348 Z"
       id="rect27"
       inkscape:export-xdpi="239.56"
       inkscape:export-ydpi="239.56"
       inkscape:connector-curvature="0" />
    <g
       aria-label="REUSE CITY"
       style="font-style:normal;font-variant:normal;font-weight:normal;font-stretch:normal;font-size:10.58333302px;line-height:1.25;font-family:'Lily Script One';-inkscape-font-specification:'Lily Script One';text-align:start;letter-spacing:0px;word-spacing:0px;text-anchor:start;fill:#000000;fill-opacity:1;stroke:none;stroke-width:0.26458332"
       id="text12"
       inkscape:export-xdpi="239.56"
       inkscape:export-ydpi="239.56"
       transform="translate(-4e-6,5.0000001e-6)">
      <path
         d="m 87.200821,147.38875 h -1.185333 v -11.00667 h 2.556933 q 1.3208,0 1.998133,0.62654 0.694267,0.62653 0.694267,1.74413 v 2.37067 q 0,1.7272 -1.490133,2.20133 l 2.0828,4.064 h -1.303867 l -1.9812,-3.89467 h -1.3716 z m 2.878667,-6.26533 v -2.37067 q 0,-0.64347 -0.389467,-0.99907 -0.389466,-0.3556 -1.1176,-0.3556 h -1.3716 v 5.08 h 1.3716 q 1.507067,0 1.507067,-1.35466 z"
         style="font-style:normal;font-variant:normal;font-weight:normal;font-stretch:normal;font-size:16.93333244px;line-height:2.23000002px;font-family:'Unica One';-inkscape-font-specification:'Unica One, Normal';font-variant-ligatures:normal;font-variant-caps:normal;font-variant-numeric:normal;font-feature-settings:normal;text-align:center;writing-mode:lr-tb;text-anchor:middle;stroke-width:0.26458332"
         id="path849"
         inkscape:connector-curvature="0" />
      <path
         d="m 99.212904,147.38875 h -4.995333 v -11.00667 h 4.825999 v 1.016 h -3.640666 v 3.89467 h 2.963333 v 1.016 h -2.963333 v 4.064 h 3.81 z"
         style="font-style:normal;font-variant:normal;font-weight:normal;font-stretch:normal;font-size:16.93333244px;line-height:2.23000002px;font-family:'Unica One';-inkscape-font-specification:'Unica One, Normal';font-variant-ligatures:normal;font-variant-caps:normal;font-variant-numeric:normal;font-feature-settings:normal;text-align:center;writing-mode:lr-tb;text-anchor:middle;stroke-width:0.26458332"
         id="path851"
         inkscape:connector-curvature="0" />
      <path
         d="m 106.16086,145.27208 v -8.89 h 1.18533 v 8.89 q 0,1.13453 -0.72813,1.76107 -0.7112,0.6096 -2.15053,0.6096 -1.4224,0 -2.15053,-0.6096 -0.72814,-0.62654 -0.72814,-1.76107 v -8.89 h 1.18534 v 8.89 q 0,1.35467 1.69333,1.35467 1.69333,0 1.69333,-1.35467 z"
         style="font-style:normal;font-variant:normal;font-weight:normal;font-stretch:normal;font-size:16.93333244px;line-height:2.23000002px;font-family:'Unica One';-inkscape-font-specification:'Unica One, Normal';font-variant-ligatures:normal;font-variant-caps:normal;font-variant-numeric:normal;font-feature-settings:normal;text-align:center;writing-mode:lr-tb;text-anchor:middle;stroke-width:0.26458332"
         id="path853"
         inkscape:connector-curvature="0" />
      <path
         d="m 115.94039,145.27208 q 0,2.37067 -2.86173,2.37067 -2.86173,0 -2.86173,-2.37067 v -1.43933 h 1.18533 v 1.50706 q 0,0.6096 0.42333,0.94827 0.42334,0.33867 1.25307,0.33867 0.82973,0 1.25307,-0.33867 0.42333,-0.33867 0.42333,-0.9144 0,-0.59267 -0.13547,-0.93133 -0.11853,-0.3556 -0.508,-0.74507 l -2.98026,-2.91253 q -0.52494,-0.52493 -0.72814,-1.016 -0.18626,-0.508 -0.18626,-1.27 0,-1.13453 0.69426,-1.74413 0.7112,-0.62654 2.1336,-0.62654 2.72627,0 2.72627,2.37067 v 1.43933 h -1.18533 v -1.50706 q 0,-0.6096 -0.4064,-0.94827 -0.38947,-0.33867 -1.18534,-0.33867 -0.79586,0 -1.20226,0.33867 -0.38947,0.33867 -0.38947,0.93133 0,0.59267 0.11853,0.93134 0.11854,0.33866 0.52494,0.7112 l 3.03106,2.91253 q 0.49107,0.54187 0.67734,1.04987 0.18626,0.49106 0.18626,1.25306 z"
         style="font-style:normal;font-variant:normal;font-weight:normal;font-stretch:normal;font-size:16.93333244px;line-height:2.23000002px;font-family:'Unica One';-inkscape-font-specification:'Unica One, Normal';font-variant-ligatures:normal;font-variant-caps:normal;font-variant-numeric:normal;font-feature-settings:normal;text-align:center;writing-mode:lr-tb;text-anchor:middle;stroke-width:0.26458332"
         id="path855"
         inkscape:connector-curvature="0" />
      <path
         d="m 123.98452,147.38875 h -4.99533 v -11.00667 h 4.826 v 1.016 h -3.64067 v 3.89467 h 2.96333 v 1.016 h -2.96333 v 4.064 h 3.81 z"
         style="font-style:normal;font-variant:normal;font-weight:normal;font-stretch:normal;font-size:16.93333244px;line-height:2.23000002px;font-family:'Unica One';-inkscape-font-specification:'Unica One, Normal';font-variant-ligatures:normal;font-variant-caps:normal;font-variant-numeric:normal;font-feature-settings:normal;text-align:center;writing-mode:lr-tb;text-anchor:middle;stroke-width:0.26458332"
         id="path857"
         inkscape:connector-curvature="0" />
      <path
         d="m 96.530691,158.50125 v -0.93134 h 1.185333 v 0.93134 q 0,1.13453 -0.694267,1.76106 -0.694266,0.6096 -2.0828,0.6096 -1.388533,0 -2.099733,-0.6096 -0.7112,-0.62653 -0.7112,-1.76106 v -6.77334 q 0,-1.13453 0.694267,-1.74413 0.694266,-0.62653 2.0828,-0.62653 1.388533,0 2.099733,0.62653 0.7112,0.6096 0.7112,1.74413 v 1.60867 h -1.185333 v -1.60867 q 0,-1.35466 -1.608667,-1.35466 -1.608667,0 -1.608667,1.35466 v 6.77334 q 0,1.35466 1.608667,1.35466 1.608667,0 1.608667,-1.35466 z"
         style="font-style:normal;font-variant:normal;font-weight:normal;font-stretch:normal;font-size:16.93333244px;line-height:2.23000002px;font-family:'Unica One';-inkscape-font-specification:'Unica One, Normal';font-variant-ligatures:normal;font-variant-caps:normal;font-variant-numeric:normal;font-feature-settings:normal;text-align:center;writing-mode:lr-tb;text-anchor:middle;stroke-width:0.26458332"
         id="path859"
         inkscape:connector-curvature="0" />
      <path
         d="m 103.05399,159.60191 v 1.016 h -2.87866 v -1.016 h 0.84666 v -8.97466 h -0.84666 v -1.016 h 2.87866 v 1.016 h -0.84666 v 8.97466 z"
         style="font-style:normal;font-variant:normal;font-weight:normal;font-stretch:normal;font-size:16.93333244px;line-height:2.23000002px;font-family:'Unica One';-inkscape-font-specification:'Unica One, Normal';font-variant-ligatures:normal;font-variant-caps:normal;font-variant-numeric:normal;font-feature-settings:normal;text-align:center;writing-mode:lr-tb;text-anchor:middle;stroke-width:0.26458332"
         id="path861"
         inkscape:connector-curvature="0" />
      <path
         d="m 110.34459,149.61125 v 1.016 h -2.20134 v 9.99066 h -1.18533 v -9.99066 h -2.20133 v -1.016 z"
         style="font-style:normal;font-variant:normal;font-weight:normal;font-stretch:normal;font-size:16.93333244px;line-height:2.23000002px;font-family:'Unica One';-inkscape-font-specification:'Unica One, Normal';font-variant-ligatures:normal;font-variant-caps:normal;font-variant-numeric:normal;font-feature-settings:normal;text-align:center;writing-mode:lr-tb;text-anchor:middle;stroke-width:0.26458332"
         id="path863"
         inkscape:connector-curvature="0" />
      <path
         d="m 115.26584,160.61791 h -1.18534 v -3.94546 l -2.794,-7.0612 h 1.25307 l 2.1336,5.67266 2.1336,-5.67266 h 1.25307 l -2.794,7.07813 z"
         style="font-style:normal;font-variant:normal;font-weight:normal;font-stretch:normal;font-size:16.93333244px;line-height:2.23000002px;font-family:'Unica One';-inkscape-font-specification:'Unica One, Normal';font-variant-ligatures:normal;font-variant-caps:normal;font-variant-numeric:normal;font-feature-settings:normal;text-align:center;writing-mode:lr-tb;text-anchor:middle;stroke-width:0.26458332"
         id="path865"
         inkscape:connector-curvature="0" />
    </g>
    <text
       id="text874"
       y="194.50198"
       x="82.79686"
       style="font-style:normal;font-variant:normal;font-weight:normal;font-stretch:normal;font-size:10.58333302px;line-height:1.25;font-family:'Lily Script One';-inkscape-font-specification:'Lily Script One';text-align:start;letter-spacing:0px;word-spacing:0px;text-anchor:start;fill:#000000;fill-opacity:1;stroke:none;stroke-width:0.26458332"
       xml:space="preserve"><tspan
         id="tspan872"
         style="font-style:normal;font-variant:normal;font-weight:normal;font-stretch:normal;font-size:16.93333244px;line-height:2.23000002px;font-family:'Unica One';-inkscape-font-specification:'Unica One, Normal';font-variant-ligatures:normal;font-variant-caps:normal;font-variant-numeric:normal;font-feature-settings:normal;text-align:start;writing-mode:lr-tb;text-anchor:start;stroke-width:0.26458332"
         y="194.50198"
         x="82.79686"
         sodipodi:role="line">Font:</tspan><tspan
         style="font-style:normal;font-variant:normal;font-weight:normal;font-stretch:normal;font-size:16.93333244px;line-height:2.23000002px;font-family:'Unica One';-inkscape-font-specification:'Unica One, Normal';font-variant-ligatures:normal;font-variant-caps:normal;font-variant-numeric:normal;font-feature-settings:normal;text-align:start;writing-mode:lr-tb;text-anchor:start;stroke-width:0.26458332"
         y="207.73116"
         x="82.79686"
         sodipodi:role="line"
         id="tspan881">Unica One</tspan></text>
    <rect
       style="opacity:1;fill:#ffffff;fill-opacity:1;stroke:#000000;stroke-width:1.10471153;stroke-linecap:round;stroke-linejoin:round;stroke-miterlimit:4;stroke-dasharray:none;stroke-dashoffset:0;stroke-opacity:1"
       id="rect834"
       width="63.895287"
       height="63.895287"
       x="73.052353"
       y="116.55235" />
  </g>
</svg>
